<svg xmlns="http://www.w3.org/2000/svg" xmlns:xlink="http://www.w3.org/1999/xlink" version="1.1" x="0px" y="0px" viewBox="0 0 100 125" enable-background="new 0 0 100 100" xml:space="preserve"><path d="M18,85.7h-6V13.8c0-0.7,0.6-1.3,1.3-1.3h3.5c0.7,0,1.3,0.6,1.3,1.3V85.7z M89.9,85.7c0.7,0,1.3-0.6,1.3-1.3V81  c0-0.7-0.6-1.3-1.3-1.3H18v6H89.9z M31.6,67v-1.6c0-0.9-0.8-1.7-1.7-1.7h-1.6c-0.9,0-1.7,0.8-1.7,1.7V67c0,0.9,0.8,1.7,1.7,1.7h1.6  C30.8,68.7,31.6,67.9,31.6,67z M41,54.3v-1.6c0-0.9-0.8-1.7-1.7-1.7h-1.6c-0.9,0-1.7,0.8-1.7,1.7v1.6c0,0.9,0.8,1.7,1.7,1.7h1.6  C40.3,56,41,55.2,41,54.3z M49.5,40.3v-1.6c0-0.9-0.8-1.7-1.7-1.7h-1.6c-0.9,0-1.7,0.8-1.7,1.7v1.6c0,0.9,0.8,1.7,1.7,1.7h1.6  C48.7,42,49.5,41.2,49.5,40.3z M59.9,45.3v-1.6c0-0.9-0.8-1.7-1.7-1.7h-1.6c-0.9,0-1.7,0.8-1.7,1.7v1.6c0,0.9,0.8,1.7,1.7,1.7h1.6  C59.1,47,59.9,46.3,59.9,45.3z M69.3,37.8v-1.6c0-0.9-0.8-1.7-1.7-1.7h-1.6c-0.9,0-1.7,0.8-1.7,1.7v1.6c0,0.9,0.8,1.7,1.7,1.7h1.6  C68.6,39.5,69.3,38.7,69.3,37.8z M78.8,28.6V27c0-0.9-0.8-1.7-1.7-1.7h-1.6c-0.9,0-1.7,0.8-1.7,1.7v1.6c0,0.9,0.8,1.7,1.7,1.7h1.6  C78,30.3,78.8,29.5,78.8,28.6z"/><path d="M14.1,79.7L14.1,79.7c-0.2-0.2-0.1-0.4,0-0.6l61.7-56.8c0.2-0.2,0.4-0.1,0.6,0v0c0.2,0.2,0.1,0.4,0,0.6L14.7,79.7  C14.6,79.9,14.3,79.8,14.1,79.7z"/><text x="0" y="115" fill="#000000" font-size="5px" font-weight="bold" font-family="'Helvetica Neue', Helvetica, Arial-Unicode, Arial, Sans-serif">Created by Harrison MacRae</text><text x="0" y="120" fill="#000000" font-size="5px" font-weight="bold" font-family="'Helvetica Neue', Helvetica, Arial-Unicode, Arial, Sans-serif">from the Noun Project</text></svg>